<?xml version="1.0" encoding="UTF-8" standalone="no"?><!DOCTYPE svg PUBLIC "-//W3C//DTD SVG 1.1//EN" "http://www.w3.org/Graphics/SVG/1.1/DTD/svg11.dtd"><svg width="100%" height="100%" viewBox="0 0 3840 3840" version="1.1" xmlns="http://www.w3.org/2000/svg" xmlns:xlink="http://www.w3.org/1999/xlink" xml:space="preserve" xmlns:serif="http://www.serif.com/" style="fill-rule:evenodd;clip-rule:evenodd;stroke-linejoin:round;stroke-miterlimit:2;"><g id="Gradient-Elements" serif:id="Gradient Elements"><path d="M480,3480C480,3511.83 492.643,3542.35 515.147,3564.85C537.652,3587.36 568.174,3600 600,3600L1150.29,3600C1182.12,3600 1212.64,3587.36 1235.15,3564.85C1491.34,3308.66 3068.66,1731.34 3324.85,1475.15C3347.36,1452.64 3360,1422.12 3360,1390.29L3360,600C3360,533.726 3306.27,480 3240,480L2457.68,480C2421.22,480 2386.74,496.571 2363.97,525.037C2120.26,829.675 716.355,2584.56 506.296,2847.13C489.274,2868.41 480,2894.85 480,2922.09L480,3480Z" style="fill:#ff0849;"/><path d="M480,3480C480,3511.83 492.643,3542.35 515.147,3564.85C537.652,3587.36 568.174,3600 600,3600L1194.02,3600C1198,3600 1201.99,3599.8 1205.95,3599.4C1320.04,3588 3040.07,3415.99 3491.94,3370.81C3553.28,3364.67 3600,3313.05 3600,3251.4C3600,3093.43 3600,2797.56 3600,2599.63C3600,2546.68 3578.97,2495.91 3541.53,2458.47C3504.09,2421.03 3453.32,2400 3400.37,2400L2653.17,2400C2644.42,2400 2635.69,2400.96 2627.14,2402.86C2472.48,2437.23 967.83,2771.59 573.968,2859.12C519.064,2871.32 480,2920.02 480,2976.26L480,3480Z" style="fill:url(#_Linear1);"/><path d="M360,240C328.174,240 297.652,252.643 275.147,275.147C252.643,297.652 240,328.174 240,360L240,1852.06C240,1894.21 262.116,1933.27 298.26,1954.96C639.092,2159.45 2368.06,3196.84 2611.5,3342.9C2630.15,3354.09 2651.49,3360 2673.24,3360L3480,3360C3546.27,3360 3600,3306.27 3600,3240L3600,2441.17C3600,2414.49 3591.11,2388.56 3574.72,2367.5C3384.63,2123.1 2180.58,575.026 1956.03,286.327C1933.3,257.097 1898.34,240 1861.31,240L360,240Z" style="fill:url(#_Linear2);"/></g><defs><linearGradient id="_Linear1" x1="0" y1="0" x2="1" y2="0" gradientUnits="userSpaceOnUse" gradientTransform="matrix(2640,-720,720,2640,240,3840)"><stop offset="0" style="stop-color:#ff0849;stop-opacity:1"/><stop offset="0.2" style="stop-color:#ff0849;stop-opacity:1"/><stop offset="0.8" style="stop-color:#fc3;stop-opacity:1"/><stop offset="1" style="stop-color:#fc3;stop-opacity:1"/></linearGradient><linearGradient id="_Linear2" x1="0" y1="0" x2="1" y2="0" gradientUnits="userSpaceOnUse" gradientTransform="matrix(3360,3120,-3120,3360,240,240)"><stop offset="0" style="stop-color:#00ff7f;stop-opacity:1"/><stop offset="0.2" style="stop-color:#00ff7f;stop-opacity:1"/><stop offset="0.8" style="stop-color:#fc3;stop-opacity:1"/><stop offset="1" style="stop-color:#fc3;stop-opacity:1"/></linearGradient></defs></svg>